simulation
nRows=30
nColumns=15
endheader
time  TH_x TH_y TH_z SC_y  SC_z  SC_x  AC_y  AC_z  AC_x  GH_y  GH_z  GH_yy  EL_x  PS_y
0.500194  0.000000  0.000000  0.000000  -31.249072  -1.228036  31.303218  57.675233  -14.863332  -14.479034  26.045230  62.291969  -30.545341  8.449921  120.052743
0.500583  0.000000  0.000000  0.000000  -32.600442  -5.918769  31.303218  49.874315  29.333896  -19.799258  20.674538  47.984053  -19.559943  14.191510  123.718131
0.500972  0.000000  0.000000  0.000000  -46.650202  1.456945  31.303218  64.644230  11.352205  -14.927091  25.316499  55.534947  -21.420304  13.346103  120.225230
0.501360  0.000000  0.000000  0.000000  -20.445071  -2.762838  31.303218  60.838740  16.655613  -19.717059  24.670814  48.673408  -19.015344  12.149071  119.834235
0.501749  0.000000  0.000000  0.000000  -49.380614  1.958352  31.303218  62.667050  -9.509655  -5.107754  21.938669  55.620840  -21.836285  20.619284  128.238755
0.502138  0.000000  0.000000  0.000000  -24.228806  13.529639  31.303218  48.296553  17.500743  -6.242000  27.657514  49.988490  -26.448739  18.642897  125.905640
0.502526  0.000000  0.000000  0.000000  -26.618813  14.526970  31.303218  56.058488  -6.795812  -10.381363  23.679021  45.566491  -25.611635  24.062622  125.522701
0.502915  0.000000  0.000000  0.000000  -36.786673  -4.938206  31.303218  65.984706  -3.377686  -19.981774  21.421022  56.764005  -24.213060  17.577902  118.246991
0.503304  0.000000  0.000000  0.000000  -32.929669  3.505048  10.911227  54.696787  22.967021  -1.749984  21.506846  53.938659  -21.366574  18.190574  124.419440
0.503692  0.000000  0.000000  0.000000  -32.929669  3.505048  0.911227  51.637561  30.981050  4.971931  21.506846  53.938659  -21.366574  18.190574  124.419440
0.504081  0.000000  0.000000  0.000000  -38.111391  7.490789  0.911227  42.153395  22.717218  0.114006  13.102389  51.271514  -21.557848  20.962276  125.661658
0.504469  0.000000  0.000000  0.000000  -42.007671  -0.067859  0.911227  58.486564  20.291027  0.581784  25.511700  48.618342  -23.955088  13.584849  119.308755
0.504858  0.000000  0.000000  0.000000  -26.876005  -3.548700  0.911227  45.642101  50.502209  -3.214383  17.740274  54.722783  -21.954013  20.464524  119.609895
0.505247  0.000000  0.000000  0.000000  -20.646424  1.925263  0.911227  44.586491  44.628799  7.073779  22.318319  45.025946  -25.045703  16.547615  123.489110
0.505635  0.000000  0.000000  0.000000  -20.529927  1.100331  0.911227  54.496789  40.978359  5.898112  11.841815  60.679994  -19.550965  19.941751  119.381315
0.506024  0.000000  0.000000  0.000000  -17.556501  20.758146  0.911227  48.725825  21.515573  12.367221  18.009459  59.183186  -18.194325  26.850306  123.148000
0.506413  0.000000  0.000000  0.000000  -43.259343  9.641460  0.911227  61.067750  18.913263  9.562579  16.741395  49.993613  -28.654729  12.029162  128.933904
0.506801  0.000000  0.000000  0.000000  -51.741322  6.257618  0.911227  48.138013  8.268847  -2.899999  26.437293  57.322877  -20.000354  17.277685  118.879491
0.507190  0.000000  0.000000  0.000000  -32.274213  17.664775  0.911227  51.419076  15.374282  13.050306  20.060279  45.517234  -19.718834  14.138037  122.102957
0.507579  0.000000  0.000000  0.000000  -24.523670  0.232112  0.911227  55.320285  33.839880  0.605759  17.717214  62.196965  -14.096291  18.467009  130.296969
0.507967  0.000000  0.000000  0.000000  -45.069231  -6.879827  0.911227  46.946641  55.850298  7.856604  24.367856  45.621894  -14.927150  11.195889  120.239683
0.508356  0.000000  0.000000  0.000000  -26.679341  16.997305  0.911227  48.111123  13.908046  10.488914  27.838449  61.071830  -23.731638  15.979482  126.937599
0.508745  0.000000  0.000000  0.000000  -26.115848  -4.374760  0.911227  47.747852  41.989425  -2.808580  14.235785  56.703776  -19.920810  26.498582  125.513142
0.509133  0.000000  0.000000  0.000000  -32.929669  3.505048  6.911227  53.624614  26.210263  0.825328  21.506846  53.938659  -21.366574  18.190574  124.419440
0.509522  0.000000  0.000000  0.000000  -22.968036  14.486335  6.911227  51.652345  26.501811  3.888088  23.578253  61.911387  -23.822012  11.040483  132.239658
0.509911  0.000000  0.000000  0.000000  -16.925693  22.328005  6.911227  50.094624  16.883605  5.014572  22.658056  48.153285  -13.667116  18.819827  122.024118
0.510299  0.000000  0.000000  0.000000  -43.108609  21.286519  6.911227  47.172863  4.934680  7.936967  19.277829  52.167012  -14.296280  28.118082  131.194559
0.510688  0.000000  0.000000  0.000000  -28.770993  4.887263  6.911227  56.770256  31.519886  -0.694741  28.955220  49.938708  -12.119540  21.338759  133.522864
0.511077  0.000000  0.000000  0.000000  -40.204926  -10.395147  6.911227  48.919318  49.343285  -3.717751  16.030372  46.445343  -17.421222  12.203937  120.724285
0.511465  0.000000  0.000000  0.000000  -29.781745  -2.252025  6.911227  59.002383  32.958766  -3.431128  21.149525  55.034854  -28.899292  12.237446  130.756303
